<?xml version="1.0" encoding="utf-8"?><svg viewBox="0 0 113 48" xmlns="http://www.w3.org/2000/svg" xmlns:xlink="http://www.w3.org/1999/xlink"><style>:root>svg{display:none}:root>svg:target{display:block}</style><svg viewBox="0 0 26 48" id="icon-arrow" xmlns="http://www.w3.org/2000/svg"><path fill-rule="evenodd" clip-rule="evenodd" d="M22.767 0 26 3.409 6.467 24 26 44.591 22.767 48 0 24 22.767 0Z" fill="currentColor"/></svg><svg viewBox="0 0 76 24" id="icon-arrow-decor" xmlns="http://www.w3.org/2000/svg"><g clip-path="url(#aa)"><path d="M57.87 22.912c2.987-.624 5.61-2.743 8.203-4.333 2.831-1.726 5.606-3.54 8.367-5.387 1.285-.861 1.696-3.143.044-3.901-2.762-1.348-5.557-2.634-8.39-3.798C63.45 4.387 60.56 2.728 57.65 3.06a.757.757 0 0 0-.394.142.795.795 0 0 0-.141 1.141c1.774 2.077 4.639 2.922 7.016 4.163.522.262 1.01.592 1.486.859-10.064.19-20.132.267-30.204.228-5.837-.014-11.675-.06-17.515-.137-5.301-.067-11.353-.86-16.436.896-.3.105-.56.304-.744.566a1.583 1.583 0 0 0-.01 1.804c.181.264.439.464.737.572 5 2.011 11.13 1.466 16.43 1.572 5.842.119 11.68.206 17.516.262 8.355.079 16.701.032 25.046.017a17.831 17.831 0 0 0-5.086 3.262c-1.9 1.915-.012 5.036 2.52 4.505Z" fill="currentColor"/></g><defs><clipPath id="aa"><path fill="#fff" transform="rotate(2.999 .524 20.027) skewX(-.006)" d="M0 0h75v20H0z"/></clipPath></defs></svg><svg viewBox="0 0 113 38" id="icon-arrow-line" xmlns="http://www.w3.org/2000/svg"><path d="M1.232 17.232a2.5 2.5 0 0 0 0 3.536l15.91 15.91a2.5 2.5 0 0 0 3.536-3.536L6.536 19 20.678 4.858a2.5 2.5 0 0 0-3.536-3.536l-15.91 15.91ZM113 16.5H3v5h110v-5Z" fill="currentColor"/></svg><svg viewBox="0 0 28 28" id="icon-close" xmlns="http://www.w3.org/2000/svg"><path d="m2 2 12 12m12 12L14 14m0 0L26 2 2 26" stroke="currentColor" stroke-width="3"/></svg><svg viewBox="0 0 32 32" id="icon-location" xmlns="http://www.w3.org/2000/svg"><path fill-rule="evenodd" clip-rule="evenodd" d="M25.333 13.454c0 3.432-2.375 6.948-5.269 9.864A37.356 37.356 0 0 1 16 26.838l-.214-.162a37.356 37.356 0 0 1-3.85-3.358c-2.894-2.916-5.27-6.432-5.27-9.864 0-2.362.984-4.628 2.734-6.3 1.75-1.67 4.125-2.609 6.6-2.609 2.475 0 4.85.94 6.6 2.61s2.733 3.937 2.733 6.3Zm2.667 0C28 22.364 16 30 16 30S4 22.364 4 13.454c0-3.037 1.264-5.95 3.515-8.099C9.765 3.207 12.817 2 16 2s6.235 1.207 8.485 3.355c2.25 2.148 3.515 5.062 3.515 8.1Zm-10.667 0c0 .704-.597 1.273-1.333 1.273s-1.333-.57-1.333-1.273c0-.702.597-1.272 1.333-1.272s1.333.57 1.333 1.272ZM16 17.273c2.21 0 4-1.71 4-3.819 0-2.108-1.79-3.818-4-3.818s-4 1.71-4 3.819c0 2.108 1.79 3.818 4 3.818Z" fill="currentColor"/></svg><svg viewBox="0 0 22 44" id="icon-play" xmlns="http://www.w3.org/2000/svg"><g clip-path="url(#fa)"><path d="m-.185 0 21.814 21.56L-.185 43.117V0Z" fill="currentColor"/></g><defs><clipPath id="fa"><path fill="currentColor" d="M0 0h22v44H0z"/></clipPath></defs></svg><svg viewBox="0 0 17 16" id="icon-plus" xmlns="http://www.w3.org/2000/svg"><path fill-rule="evenodd" clip-rule="evenodd" d="M7.796 8.69H.69V7.31h7.107V.205h1.378V7.31h7.108v1.378H9.174v7.107H7.796V8.69Z" fill="currentColor"/></svg><svg viewBox="0 0 40 40" id="icon-tg" xmlns="http://www.w3.org/2000/svg"><path d="M35.638 5.197 4.634 17.416c-2.116.869-2.103 2.075-.388 2.613l7.96 2.538L30.622 10.69c.871-.542 1.667-.25 1.013.343L16.714 24.797h-.004l.004.002-.55 8.385c.805 0 1.16-.377 1.611-.822l3.867-3.842 8.041 6.07c1.483.835 2.548.406 2.917-1.402L37.88 7.76c.54-2.214-.828-3.217-2.242-2.563Z" fill="currentColor"/></svg><svg viewBox="0 0 40 40" id="icon-vk" xmlns="http://www.w3.org/2000/svg"><path d="M37.202 11.356c.24-.781 0-1.356-1.156-1.356h-3.827c-.975 0-1.423.494-1.664 1.044 0 0-1.949 4.569-4.704 7.531-.89.856-1.3 1.131-1.786 1.131-.24 0-.611-.275-.611-1.056v-7.294c0-.937-.273-1.356-1.079-1.356H16.36c-.611 0-.975.438-.975.844 0 .887 1.378 1.094 1.52 3.594v5.425c0 1.187-.22 1.406-.708 1.406-1.3 0-4.457-4.588-6.328-9.838C9.49 10.413 9.12 10 8.139 10H4.312C3.221 10 3 10.494 3 11.044c0 .975 1.3 5.819 6.05 12.218C12.212 27.633 16.67 30 20.724 30c2.436 0 2.735-.525 2.735-1.431 0-4.175-.22-4.569 1-4.569.566 0 1.54.275 3.815 2.381 2.599 2.5 3.028 3.619 4.483 3.619h3.827c1.092 0 1.644-.525 1.325-1.563-.727-2.18-5.646-6.668-5.867-6.968-.565-.7-.402-1.013 0-1.638.007-.006 4.678-6.331 5.16-8.475Z" fill="currentColor"/></svg></svg>