<svg width="164" height="186" viewBox="0 0 164 186" fill="none" xmlns="http://www.w3.org/2000/svg">
<path d="M0.602016 132.433L0.860601 132.465H1.10624H1.35836C1.62986 132.465 1.94658 132.523 2.30858 132.562L2.70936 132.601L4.83611 132.84L5.27564 132.885L6.77538 133.066L7.58988 133.163L8.43018 133.267H8.50135L9.31577 133.376L9.76832 133.435L10.0851 133.48L12.1084 133.745L13.1103 133.887L13.6145 133.958L14.9591 134.152L15.7089 134.256L17.2344 134.495H17.3379C18.4303 134.663 19.5552 134.844 20.6929 135.038L20.8738 135.07L21.0548 135.102H21.1842L21.8306 135.212H21.9922L23.285 135.445L24.7395 135.71L26.1099 135.969L26.9308 136.13L28.5857 136.466L29.4907 136.654C30.3375 136.828 31.1842 137.016 32.0311 137.21L32.6775 137.371C32.9554 137.429 33.2269 137.488 33.492 137.559C34.0285 137.682 34.565 137.817 35.1016 137.953H35.1791L35.8967 138.134C36.1618 138.199 36.4203 138.276 36.6853 138.347L37.9782 138.69L38.2496 138.768L39.0189 138.987L39.7688 139.207C40.6867 139.485 41.5852 139.763 42.4514 140.06L42.7164 140.144L42.8974 140.216L43.3693 140.384L44.3131 140.72L45.2245 141.069L45.3603 141.121L45.5542 141.198C45.9227 141.34 46.2847 141.495 46.6403 141.651L46.8859 141.754C47.1703 141.877 47.4482 142 47.7262 142.135C47.7641 142.145 47.7995 142.162 47.8296 142.187C48.0171 142.271 48.211 142.362 48.3985 142.459L48.9479 142.737L49.478 143.015L49.9822 143.305L50.4735 143.596C50.7902 143.79 51.1199 143.984 51.385 144.185L51.8052 144.495C52.0443 144.669 52.2706 144.85 52.4516 145.031C52.5271 145.086 52.5984 145.147 52.6649 145.212L52.9493 145.477C53.0398 145.568 53.1367 145.652 53.2143 145.742C53.2919 145.833 53.4018 145.943 53.4858 146.04L53.5505 146.111L53.7832 146.395C61.4885 156.389 103.609 170.533 110.229 170.087C116.848 169.641 134.295 129.666 137.165 125.639C139.809 121.922 144.651 97.1962 151.736 91.0616C152.286 90.57 152.921 90.1823 153.61 89.9174L154.082 89.7364L154.392 89.6072L154.547 89.5296C154.673 89.4758 154.796 89.4154 154.916 89.3486L155.052 89.284L155.323 89.1288L155.705 88.9026L155.898 88.7798C155.965 88.7426 156.028 88.6994 156.086 88.6505C156.286 88.5147 156.487 88.3725 156.674 88.2238L156.758 88.1656C156.939 88.017 157.114 87.8747 157.282 87.7196C157.45 87.5645 157.689 87.3382 157.883 87.1314C158.04 86.9777 158.189 86.8158 158.329 86.6465C158.542 86.4074 158.736 86.1617 158.93 85.9096C159.021 85.7803 159.118 85.6575 159.202 85.5282L159.473 85.1339C159.59 84.9594 159.699 84.7784 159.809 84.5909C159.919 84.4035 159.984 84.2871 160.068 84.132C160.152 83.9768 160.346 83.6278 160.462 83.3692C160.54 83.2141 160.611 83.0524 160.682 82.8973C160.753 82.7422 160.844 82.5094 160.928 82.3091C161.012 82.1087 161.076 81.9147 161.147 81.7208C161.218 81.5269 161.264 81.3976 161.315 81.236L161.374 81.0615C161.432 80.8805 161.484 80.7059 161.529 80.5249C161.574 80.3439 161.652 80.1048 161.697 79.8785C161.781 79.5359 161.858 79.1868 161.923 78.8507C161.942 78.7809 161.955 78.7095 161.962 78.6374C162.007 78.3917 162.039 78.1526 162.072 77.9134C162.104 77.6742 162.136 77.435 162.156 77.2088L162.214 76.5042V76.1293C162.214 75.9095 162.214 75.6897 162.214 75.4828V75.3277C162.214 75.1855 162.214 75.0497 162.214 74.9011C162.214 74.7524 162.214 74.6102 162.214 74.468C162.214 74.3257 162.214 74.1447 162.169 73.9831C162.131 73.6121 162.075 73.2431 162.001 72.8778C162.001 72.742 161.943 72.6127 161.91 72.4964C161.878 72.38 161.846 72.2443 161.807 72.1279C161.743 71.9078 161.665 71.6919 161.574 71.4815C159.706 67.1763 73.9127 53.776 67.5132 47.7061C61.1136 41.6362 55.0114 58.6242 44.8884 68.3916C26.9502 85.7222 19.0703 96.1554 13.0134 112.303C6.95639 128.451 0.304688 132.407 0.304688 132.407H0.408137L0.602016 132.433Z" fill="#F7C9BF"/>
<path d="M161.638 71.623C161.729 71.8335 161.806 72.0494 161.87 72.2695C161.909 72.3858 161.942 72.5086 161.974 72.6379C162.006 72.7672 162.032 72.8836 162.064 73.0193C162.139 73.3847 162.195 73.7536 162.233 74.1247C162.233 74.2863 162.232 74.4414 162.278 74.6095C162.323 74.7776 162.278 74.8939 162.278 75.0426C162.278 75.1913 162.278 75.3271 162.278 75.4693V75.6244C162.278 75.8377 162.278 76.0575 162.278 76.2708V76.6457L162.22 77.3504C162.22 77.5766 162.168 77.8158 162.136 78.055C162.103 78.2941 162.071 78.5333 162.026 78.7789C162.019 78.8511 162.006 78.9224 161.987 78.9923C161.922 79.3284 161.845 79.6775 161.761 80.0201C161.715 80.2334 161.657 80.4467 161.593 80.6665C161.528 80.8863 161.496 81.022 161.437 81.203L161.379 81.3776C161.328 81.5392 161.269 81.7008 161.211 81.8624C161.153 82.024 161.069 82.2567 160.991 82.4506C160.914 82.6445 160.83 82.8449 160.746 83.0389C160.662 83.2328 160.604 83.3556 160.526 83.5108C160.41 83.7693 160.274 84.0214 160.132 84.2735C159.989 84.5256 159.964 84.5838 159.873 84.7325C159.783 84.8812 159.653 85.1009 159.537 85.2755L159.265 85.6698C159.181 85.7991 159.084 85.9219 158.994 86.0512C158.8 86.3033 158.606 86.5489 158.393 86.7881C158.253 86.9574 158.104 87.1192 157.947 87.2729C157.753 87.4798 157.552 87.6737 157.346 87.8612C157.139 88.0486 157.003 88.1585 156.822 88.3072L156.738 88.3654C156.55 88.5141 156.35 88.6563 156.15 88.792C156.091 88.8409 156.029 88.8842 155.962 88.9213L155.768 89.0441L155.387 89.2704L155.115 89.4255L154.98 89.4902C154.86 89.557 154.737 89.6174 154.611 89.6712L154.456 89.7487L154.146 89.878L153.674 90.059C152.985 90.3239 152.35 90.7116 151.799 91.2032C144.689 97.3571 139.873 122.063 137.229 125.78C134.359 129.807 116.905 169.789 110.293 170.228C103.68 170.668 61.5523 156.531 53.8469 146.537L53.6142 146.252L53.5496 146.181C53.4655 146.084 53.375 145.981 53.2781 145.884C53.1811 145.787 53.1036 145.709 53.0131 145.619L52.7286 145.354C52.6621 145.288 52.5909 145.228 52.5153 145.173C52.3085 144.992 52.0822 144.811 51.8689 144.636L51.4487 144.326C51.1578 144.126 50.854 143.932 50.5372 143.738L50.0459 143.447L49.5418 143.156L49.0117 142.878L48.4622 142.6C48.2748 142.503 48.0808 142.413 47.8934 142.329C47.8633 142.304 47.8279 142.286 47.7899 142.277C47.512 142.141 47.2341 142.018 46.9496 141.896L46.704 141.792C46.3485 141.637 45.9864 141.482 45.618 141.34L45.4241 141.262L45.2883 141.21L44.3769 140.861L43.4331 140.525L42.9612 140.357L42.7802 140.286L42.5152 140.202C41.649 139.905 40.7504 139.627 39.8325 139.349L39.0891 139.135L38.3199 138.916L38.0484 138.838L36.7555 138.495C36.4905 138.424 36.232 138.347 35.9669 138.282L35.2494 138.101H35.1718C34.6352 137.965 34.0987 137.83 33.5622 137.707C33.2971 137.636 33.0256 137.577 32.7477 137.519L32.1013 137.358C31.2544 137.164 30.4077 136.976 29.5609 136.802L28.6559 136.614L27.0011 136.278L26.1801 136.117L24.8097 135.858L23.3552 135.593L22.0624 135.36H21.9008L21.2544 135.25H21.125L20.9441 135.218L20.7631 135.186C19.6254 134.992 18.5006 134.811 17.4081 134.643H17.3047L15.7791 134.404L15.0293 134.3L13.6847 134.106L13.1806 134.035L12.1786 133.893L10.1553 133.628L9.83852 133.583L9.38606 133.524L8.57156 133.415H8.50047L7.66009 133.311L6.84559 133.214L5.34592 133.033L4.90632 132.988L2.77957 132.749L2.37879 132.71C2.01679 132.671 1.73239 132.632 1.42857 132.613H1.17645H0.93081L0.672225 132.581H0.497758H0.303799L0 147.364C0 147.364 45.8313 151.508 53.5366 161.502C61.242 171.495 103.363 185.633 109.982 185.193C116.602 184.753 134.048 144.772 136.919 140.739C139.789 136.705 145.251 107.926 153.364 105.024C159.317 102.89 161.825 96.2517 161.993 91.1773C165.788 74.157 161.812 71.72 161.638 71.623Z" fill="#D43038"/>
<path d="M116.712 110.098C90.5838 124.669 36.8662 115.522 16.2324 104.927C17.8499 101.476 19.7075 98.1433 21.7916 94.9527C46.3557 89.846 96.8218 79.1929 114.605 74.306C138.49 67.7189 148.736 92.2506 116.712 110.098Z" fill="#D43038"/>
<path d="M131.956 71.9076C131.31 103.582 102.137 112.632 64.0817 111.882C34.7924 111.294 16.1495 105.47 11.2755 87.1373C9.81457 81.6492 16.9381 70.7311 17.0933 63.433C17.3971 48.3455 17.9078 37.7765 27.1452 29.9936C37.3134 21.422 36.3437 6.11475 56.2859 6.51553C69.3048 6.7741 83.3904 8.80386 88.6523 19.1789C94.7092 31.1119 102.486 34.5832 116.448 34.3117C127.004 34.0919 132.176 61.345 131.956 71.9076Z" fill="#B8DECF"/>
<path d="M131.954 71.9076C131.747 82.1081 128.58 89.9686 123.104 95.9028C114.358 92.2634 92.1279 103.401 81.6365 102.697C29.6965 99.2318 31.5065 84.293 13.6523 75.7409C15.0228 72.0821 16.5095 68.2811 16.9491 65.0103C36.6649 65.5015 34.8291 76.6135 51.8559 73.8792C73.6597 70.3756 54.7066 40.3428 19.037 42.9608C20.2927 37.882 23.1372 33.3367 27.1561 29.9871C37.3179 21.422 36.3482 6.11475 56.2838 6.51553C69.3157 6.7741 83.3884 8.80386 88.6567 19.1789C94.7137 31.1119 102.49 34.5832 116.453 34.3052C127.002 34.0919 132.174 61.345 131.954 71.9076Z" fill="white"/>
<path d="M88.7805 91.2046C85.3237 93.0586 81.3126 93.5981 77.4888 92.7233C73.6651 91.8486 70.2874 89.6188 67.9806 86.4463C65.6738 83.2738 64.5939 79.3733 64.9405 75.4661C65.2871 71.5589 67.0368 67.9094 69.8661 65.1926C72.334 63.8499 75.112 63.1811 77.9205 63.2533C81.1344 63.3188 84.2565 64.3374 86.8905 66.18C89.5246 68.0226 91.5519 70.6061 92.7154 73.6027C93.8789 76.5993 94.126 79.874 93.4254 83.0112C92.7249 86.1485 91.1081 89.007 88.7805 91.224V91.2046Z" fill="#F05469"/>
<path d="M53.2339 122.943C63.7336 122.943 72.2452 114.432 72.2452 103.932C72.2452 93.4325 63.7336 84.9209 53.2339 84.9209C42.7343 84.9209 34.2227 93.4325 34.2227 103.932C34.2227 114.432 42.7343 122.943 53.2339 122.943Z" fill="#D43038"/>
<path d="M88.7804 91.2044C87.1073 92.8016 85.1119 94.0226 82.9283 94.7856C80.7446 95.5485 78.4231 95.8357 76.1193 95.6279C73.8155 95.4201 71.5829 94.7222 69.571 93.5808C67.559 92.4395 65.8144 90.8812 64.454 89.0104C63.0937 87.1395 62.1491 84.9995 61.6835 82.7337C61.218 80.4679 61.2423 78.1288 61.7549 75.8732C62.2674 73.6176 63.2563 71.4976 64.6553 69.6555C66.0542 67.8134 67.8309 66.2916 69.8661 65.1924C67.0368 67.9092 65.2871 71.5587 64.9404 75.4659C64.5938 79.3731 65.6737 83.2736 67.9806 86.4461C70.2874 89.6186 73.665 91.8484 77.4888 92.7231C81.3125 93.5979 85.3237 93.0584 88.7804 91.2044Z" fill="#D43038"/>
<path d="M104.428 129.886C102.309 132.039 99.7466 133.706 96.9187 134.77C94.0909 135.834 91.0653 136.27 88.052 136.048C85.0388 135.826 82.11 134.951 79.4687 133.484C76.8275 132.016 74.5371 129.992 72.7566 127.551C70.976 125.11 69.7479 122.31 69.1575 119.347C68.567 116.384 68.6283 113.328 69.3371 110.391C70.046 107.454 71.3854 104.706 73.2624 102.338C75.1394 99.9704 77.509 98.0394 80.207 96.6792C77.351 99.5796 75.4076 103.253 74.6168 107.246C73.8261 111.239 74.2227 115.376 75.7576 119.146C77.2926 122.916 79.8986 126.154 83.2536 128.459C86.6086 130.764 90.5655 132.035 94.6352 132.116C98.0339 132.195 101.399 131.428 104.428 129.886Z" fill="#D43038"/>
<path d="M50.6824 115.587C51.2189 114.256 49.9976 112.509 47.9545 111.686C45.9114 110.863 43.8203 111.274 43.2838 112.605C42.7474 113.937 43.9687 115.683 46.0118 116.506C48.0549 117.33 50.146 116.918 50.6824 115.587Z" fill="#302654"/>
<path d="M104.429 129.886C101.4 131.428 98.0345 132.195 94.6358 132.116C90.5661 132.035 86.6092 130.764 83.2542 128.459C79.8993 126.154 77.2933 122.916 75.7583 119.146C74.2233 115.376 73.8267 111.239 74.6175 107.246C75.4083 103.253 77.3517 99.5794 80.2077 96.679C83.2371 95.1298 86.606 94.3631 90.0074 94.4489C94.0779 94.5278 98.0359 95.7984 101.392 98.1034C104.748 100.408 107.354 103.647 108.889 107.418C110.424 111.189 110.819 115.327 110.026 119.32C109.234 123.313 107.288 126.987 104.429 129.886Z" fill="#F05469"/>
<path d="M98.4573 127.769C100.61 126.1 101.518 123.667 100.485 122.335C99.4528 121.004 96.8707 121.277 94.718 122.946C92.5654 124.616 91.6574 127.048 92.6899 128.38C93.7225 129.712 96.3046 129.438 98.4573 127.769Z" fill="#302654"/>
<path d="M82.0784 92.2632C83.5258 91.8713 84.4789 90.7407 84.2074 89.738C83.9359 88.7352 82.5425 88.2399 81.0952 88.6318C79.6479 89.0236 78.6947 90.1542 78.9662 91.157C79.2377 92.1598 80.6311 92.6551 82.0784 92.2632Z" fill="#302654"/>
<path d="M44.9082 22.851C49.6853 37.1693 49.724 47.3763 44.6367 49.0764C39.5494 50.7765 31.2558 43.3232 26.4787 29.005C21.7017 14.6867 27.0411 0 27.0411 0C27.0411 0 40.1506 8.55863 44.9082 22.851Z" fill="#087D8F"/>
<path d="M25.3971 61.6563C33.9686 65.9356 42.9798 67.4741 45.378 62.6906C47.7762 57.9071 36.1924 48.1396 27.6208 43.8603C19.0492 39.581 4.89258 46.0905 4.89258 46.0905C4.89258 46.0905 16.8255 57.377 25.3971 61.6563Z" fill="#087D8F"/>
<path d="M50.7706 56.7823C52.9361 56.7823 52.9361 53.4209 50.7706 53.4209C48.6051 53.4209 48.6051 56.7823 50.7706 56.7823Z" fill="#087D8F"/>
<path d="M68.9352 13.6592C71.1007 13.6592 71.1071 10.2979 68.9352 10.2979C66.7632 10.2979 66.7696 13.6592 68.9352 13.6592Z" fill="#087D8F"/>
<path d="M78.3331 16.109C80.4986 16.109 80.4986 12.7476 78.3331 12.7476C76.1676 12.7476 76.1676 16.109 78.3331 16.109Z" fill="#087D8F"/>
<path d="M79.1085 27.8038C81.274 27.8038 81.274 24.4424 79.1085 24.4424C76.943 24.4424 76.943 27.8038 79.1085 27.8038Z" fill="#087D8F"/>
<path d="M16.7237 126.802C18.8893 126.802 18.8893 123.441 16.7237 123.441C14.5582 123.441 14.5582 126.802 16.7237 126.802Z" fill="#F05469"/>
<path d="M27.7765 118.302C29.9355 118.302 29.942 114.94 27.7765 114.94C25.611 114.94 25.611 118.302 27.7765 118.302Z" fill="#F05469"/>
<path d="M108.289 156.24C110.454 156.24 110.461 152.878 108.289 152.878C106.117 152.878 106.123 156.24 108.289 156.24Z" fill="#F05469"/>
<path d="M121.482 132.471C123.641 132.471 123.648 129.109 121.482 129.109C119.317 129.109 119.31 132.471 121.482 132.471Z" fill="#F05469"/>
<path d="M143.345 82.69C145.51 82.69 145.51 79.3286 143.345 79.3286C141.179 79.3286 141.179 82.69 143.345 82.69Z" fill="#F05469"/>
<path d="M159.046 82.0831C161.212 82.0831 161.212 78.7217 159.046 78.7217C156.88 78.7217 156.88 82.0831 159.046 82.0831Z" fill="#F05469"/>
</svg>
