<svg width="224" height="283" viewBox="0 0 224 283" fill="none" xmlns="http://www.w3.org/2000/svg">
<g clip-path="url(#clip0_2630_16)">
<path d="M225.496 174.156L225.495 87.5537L150.497 130.854L225.496 174.156Z" fill="#F7C9BF"/>
<path d="M150.498 217.456L150.497 130.854L75.499 174.154L150.498 217.456Z" fill="#F7C9BF"/>
<path d="M150.497 130.854L150.498 217.456L225.496 174.156L150.497 130.854Z" fill="#087D8F"/>
<path d="M225.497 260.757L150.498 217.456L225.496 174.156L225.497 260.757Z" fill="#302654"/>
<path d="M75.4978 87.5518L75.499 174.154L150.497 130.854L75.4978 87.5518Z" fill="#1A4A7D"/>
<path d="M150.496 44.2517L150.497 130.854L225.495 87.5537L150.496 44.2517Z" fill="#1A4A7D"/>
<path d="M150.497 130.854L150.496 44.2517L75.498 87.5518L150.497 130.854Z" fill="#D43038"/>
<path d="M75.4992 174.154L0.5 130.852L75.4979 87.5518L75.4992 174.154Z" fill="#7AC9B5"/>
<path d="M225.494 87.5537L150.496 44.2517L225.493 0.95166L225.494 87.5537Z" fill="#7AC9B5"/>
</g>
<defs>
<clipPath id="clip0_2630_16">
<rect width="224" height="283" fill="white"/>
</clipPath>
</defs>
</svg>
